<svg width="434" height="429" viewBox="0 0 434 429" fill="none" xmlns="http://www.w3.org/2000/svg">
<path d="M388 394H106C103.791 394 102 395.791 102 398V418C102 420.209 103.791 422 106 422H388C390.209 422 392 420.209 392 418V398C392 395.791 390.209 394 388 394Z" fill="#818384"/>
<path d="M388 394H106C103.791 394 102 395.791 102 398V418C102 420.209 103.791 422 106 422H388C390.209 422 392 420.209 392 418V398C392 395.791 390.209 394 388 394Z" stroke="#E5E5E5" stroke-width="14" stroke-linecap="round" stroke-linejoin="round"/>
<path d="M135 336H359V393H135V336Z" fill="#BFBFC1"/>
<path d="M135 336H359V393H135V336Z" stroke="#E5E5E5" stroke-width="14" stroke-linecap="round"/>
<path d="M247 367C346.411 367 427 286.411 427 187C427 87.5887 346.411 7 247 7C147.589 7 67 87.5887 67 187C67 286.411 147.589 367 247 367Z" fill="#7EE787"/>
<path d="M247 367C346.411 367 427 286.411 427 187C427 87.5887 346.411 7 247 7C147.589 7 67 87.5887 67 187C67 286.411 147.589 367 247 367Z" fill="#7EE787" stroke="#E5E5E5" stroke-width="14" stroke-linecap="round" stroke-linejoin="round"/>
<path d="M247 233C272.405 233 293 212.405 293 187C293 161.595 272.405 141 247 141C221.595 141 201 161.595 201 187C201 212.405 221.595 233 247 233Z" fill="#A8A8A8"/>
<path d="M247 233C272.405 233 293 212.405 293 187C293 161.595 272.405 141 247 141C221.595 141 201 161.595 201 187C201 212.405 221.595 233 247 233Z" stroke="#2B2B2B" stroke-width="14" stroke-linecap="round" stroke-linejoin="round"/>
<path d="M21.5 202C29.5081 202 36 195.508 36 187.5C36 179.492 29.5081 173 21.5 173C13.4919 173 7 179.492 7 187.5C7 195.508 13.4919 202 21.5 202Z" fill="#2B2B2B"/>
<path d="M21.5 202C29.5081 202 36 195.508 36 187.5C36 179.492 29.5081 173 21.5 173C13.4919 173 7 179.492 7 187.5C7 195.508 13.4919 202 21.5 202Z" fill="#2B2B2B" stroke="#E5E5E5" stroke-width="14" stroke-linecap="round" stroke-linejoin="round"/>
<path d="M247.5 202C255.508 202 262 195.508 262 187.5C262 179.492 255.508 173 247.5 173C239.492 173 233 179.492 233 187.5C233 195.508 239.492 202 247.5 202Z" fill="#A8A8A8"/>
<path d="M247.5 202C255.508 202 262 195.508 262 187.5C262 179.492 255.508 173 247.5 173C239.492 173 233 179.492 233 187.5C233 195.508 239.492 202 247.5 202Z" stroke="#2B2B2B" stroke-width="14" stroke-linecap="round" stroke-linejoin="round"/>
<path d="M135 367C135 358.325 20 387.229 20 312.06C20 236.892 20 229.551 20 207" stroke="#E5E5E5" stroke-width="14" stroke-linecap="round" stroke-linejoin="round"/>
</svg>
